solid MyShape
  facet normal 200 0 200
    outer loop
      vertex 0 0 0
      vertex 10 0 0
      vertex 10 20 0
    endloop
  endfacet
  facet normal 0 0 200
    outer loop
      vertex 0 0 0
      vertex 10 20 0
      vertex 0 20 0
    endloop
  endfacet
  facet normal 0 0 200
    outer loop
      vertex 0 0 50
      vertex 10 0 50
      vertex 10 20 50
    endloop
  endfacet
  facet normal 0 0 200
    outer loop
      vertex 0 0 50
      vertex 10 20 50
      vertex 0 20 50
    endloop
  endfacet
  facet normal 0 -500 0
    outer loop
      vertex 0 0 0
      vertex 10 0 0
      vertex 10 0 50
    endloop
  endfacet
  facet normal 0 -500 0
    outer loop
      vertex 0 0 0
      vertex 10 0 50
      vertex 0 0 50
    endloop
  endfacet
  facet normal 0 500 0
    outer loop
      vertex 10 20 0
      vertex 0 20 0
      vertex 0 20 50
    endloop
  endfacet
  facet normal 0 500 -0
    outer loop
      vertex 10 20 0
      vertex 0 20 50
      vertex 10 20 50
    endloop
  endfacet
  facet normal 1000 0 0
    outer loop
      vertex 0 0 0
      vertex 0 20 0
      vertex 0 20 50
    endloop
  endfacet
  facet normal 1000 0 0
    outer loop
      vertex 0 0 0
      vertex 0 20 50
      vertex 0 0 50
    endloop
  endfacet
  facet normal 1000 0 0
    outer loop
      vertex 10 0 0
      vertex 10 20 0
      vertex 10 20 50
    endloop
  endfacet
  facet normal 1000 0 0
    outer loop
      vertex 10 0 0
      vertex 10 20 50
      vertex 10 0 50
    endloop
  endfacet
endsolid MyShape
