solid MyShape
  facet normal 0 0 50
    outer loop
      vertex 0 0 0
      vertex 10 0 0
      vertex 10 5 0
    endloop
  endfacet
  facet normal 0 0 50
    outer loop
      vertex 0 0 0
      vertex 10 5 0
      vertex 0 5 0
    endloop
  endfacet
  facet normal 0 0 -50
    outer loop
      vertex 0 0 4
      vertex 10 5 4
      vertex 10 0 4
    endloop
  endfacet
  facet normal 0 0 -50
    outer loop
      vertex 0 0 4
      vertex 0 5 4
      vertex 10 5 4
    endloop
  endfacet
  facet normal 20 0 0
    outer loop
      vertex 0 0 0
      vertex 0 5 0
      vertex 0 5 4
    endloop
  endfacet
  facet normal 20 0 0
    outer loop
      vertex 0 0 0
      vertex 0 5 4
      vertex 0 0 4
    endloop
  endfacet
  facet normal -20 0 0
    outer loop
      vertex 10 0 0
      vertex 10 0 4
      vertex 10 5 4
    endloop
  endfacet
  facet normal -20 0 0
    outer loop
      vertex 10 0 0
      vertex 10 5 4
      vertex 10 5 0
    endloop
  endfacet
  facet normal 0 -40 0
    outer loop
      vertex 0 5 0
      vertex 10 5 0
      vertex 10 5 4
    endloop
  endfacet
  facet normal 0 -40 0
    outer loop
      vertex 0 5 0
      vertex 10 5 4
      vertex 0 5 4
    endloop
  endfacet
  facet normal 0 40 0
    outer loop
      vertex 0 0 0
      vertex 0 0 4
      vertex 10 0 4
    endloop
  endfacet
  facet normal 0 40 0
    outer loop
      vertex 0 0 0
      vertex 10 0 4
      vertex 10 0 0
    endloop
  endfacet
endsolid MyShape
