solid MyShape
  facet normal 0 0 0.1
    outer loop
      vertex 0 0 0
      vertex 0.2 0 0
      vertex 0.2 0.5 0
    endloop
  endfacet
  facet normal 0 0 0.1
    outer loop
      vertex 0 0 0
      vertex 0.2 0.5 0
      vertex 0 0.5 0
    endloop
  endfacet
  facet normal 0 0 -0.1
    outer loop
      vertex 0 0 0.9
      vertex 0.2 0.5 0.9
      vertex 0.2 0 0.9
    endloop
  endfacet
  facet normal 0 0 -0.1
    outer loop
      vertex 0 0 0.9
      vertex 0 0.5 0.9
      vertex 0.2 0.5 0.9
    endloop
  endfacet
  facet normal 0.45 0 0
    outer loop
      vertex 0 0 0
      vertex 0 0.5 0
      vertex 0 0.5 0.9
    endloop
  endfacet
  facet normal 0.45 0 0
    outer loop
      vertex 0 0 0
      vertex 0 0.5 0.9
      vertex 0 0 0.9
    endloop
  endfacet
  facet normal -0.45 0 0
    outer loop
      vertex 0.2 0 0
      vertex 0.2 0 0.9
      vertex 0.2 0.5 0.9
    endloop
  endfacet
  facet normal -0.45 0 0
    outer loop
      vertex 0.2 0 0
      vertex 0.2 0.5 0.9
      vertex 0.2 0.5 0
    endloop
  endfacet
  facet normal 0 -0.18 0
    outer loop
      vertex 0 0.5 0
      vertex 0.2 0.5 0
      vertex 0.2 0.5 0.9
    endloop
  endfacet
  facet normal 0 -0.18 0
    outer loop
      vertex 0 0.5 0
      vertex 0.2 0.5 0.9
      vertex 0 0.5 0.9
    endloop
  endfacet
  facet normal 0 0.18 0
    outer loop
      vertex 0 0 0
      vertex 0 0 0.9
      vertex 0.2 0 0.9
    endloop
  endfacet
  facet normal 0 0.18 0
    outer loop
      vertex 0 0 0
      vertex 0.2 0 0.9
      vertex 0.2 0 0
    endloop
  endfacet
endsolid MyShape
