# OBJ file generated from StlShape

v 0 0 0
v 40 0 0
v 40 40 0
v 0 40 0
v 0 0 60
v 40 0 60
v 40 40 60
v 0 40 60
v 0 50 0
v 20 50 0
v 19.8423 50 2.50666
v 0 -50 0
v 19.8423 -50 2.50666
v 20 -50 0
v 19.3717 50 4.9738
v 19.3717 -50 4.9738
v 18.5955 50 7.36249
v 18.5955 -50 7.36249
v 17.5261 50 9.63507
v 17.5261 -50 9.63507
v 16.1803 50 11.7557
v 16.1803 -50 11.7557
v 14.5794 50 13.6909
v 14.5794 -50 13.6909
v 12.7485 50 15.4103
v 12.7485 -50 15.4103
v 10.7165 50 16.8866
v 10.7165 -50 16.8866
v 8.51559 50 18.0965
v 8.51559 -50 18.0965
v 6.18034 50 19.0211
v 6.18034 -50 19.0211
v 3.74763 50 19.6457
v 3.74763 -50 19.6457
v 1.25581 50 19.9605
v 1.25581 -50 19.9605
v -1.25581 50 19.9605
v -1.25581 -50 19.9605
v -3.74763 50 19.6457
v -3.74763 -50 19.6457
v -6.18034 50 19.0211
v -6.18034 -50 19.0211
v -8.51559 50 18.0965
v -8.51559 -50 18.0965
v -10.7165 50 16.8866
v -10.7165 -50 16.8866
v -12.7485 50 15.4103
v -12.7485 -50 15.4103
v -14.5794 50 13.6909
v -14.5794 -50 13.6909
v -16.1803 50 11.7557
v -16.1803 -50 11.7557
v -17.5261 50 9.63507
v -17.5261 -50 9.63507
v -18.5955 50 7.36249
v -18.5955 -50 7.36249
v -19.3717 50 4.9738
v -19.3717 -50 4.9738
v -19.8423 50 2.50666
v -19.8423 -50 2.50666
v -20 50 -6.43249e-15
v -20 -50 -6.43249e-15
v -19.8423 50 -2.50666
v -19.8423 -50 -2.50666
v -19.3717 50 -4.9738
v -19.3717 -50 -4.9738
v -18.5955 50 -7.36249
v -18.5955 -50 -7.36249
v -17.5261 50 -9.63507
v -17.5261 -50 -9.63507
v -16.1803 50 -11.7557
v -16.1803 -50 -11.7557
v -14.5794 50 -13.6909
v -14.5794 -50 -13.6909
v -12.7485 50 -15.4103
v -12.7485 -50 -15.4103
v -10.7165 50 -16.8866
v -10.7165 -50 -16.8866
v -8.51559 50 -18.0965
v -8.51559 -50 -18.0965
v -6.18034 50 -19.0211
v -6.18034 -50 -19.0211
v -3.74763 50 -19.6457
v -3.74763 -50 -19.6457
v -1.25581 50 -19.9605
v -1.25581 -50 -19.9605
v 1.25581 50 -19.9605
v 1.25581 -50 -19.9605
v 3.74763 50 -19.6457
v 3.74763 -50 -19.6457
v 6.18034 50 -19.0211
v 6.18034 -50 -19.0211
v 8.51559 50 -18.0965
v 8.51559 -50 -18.0965
v 10.7165 50 -16.8866
v 10.7165 -50 -16.8866
v 12.7485 50 -15.4103
v 12.7485 -50 -15.4103
v 14.5794 50 -13.6909
v 14.5794 -50 -13.6909
v 16.1803 50 -11.7557
v 16.1803 -50 -11.7557
v 17.5261 50 -9.63507
v 17.5261 -50 -9.63507
v 18.5955 50 -7.36249
v 18.5955 -50 -7.36249
v 19.3717 50 -4.9738
v 19.3717 -50 -4.9738
v 19.8423 50 -2.50666
v 19.8423 -50 -2.50666

vn 0 0 1
vn 0 0 1
vn 0 0 1
vn 0 0 1
vn 0 -1 0
vn 0 -1 0
vn 1 0 0
vn 1 0 0
vn 0 1 0
vn 0 1 -0
vn 1 0 0
vn 1 0 0
vn 0 -1 0
vn 0 1 0
vn 0.998027 0 0.0627905
vn 0.998027 0 0.0627905
vn 0 -1 0
vn 0 1 0
vn 0.982287 0 0.187381
vn 0.982287 0 0.187381
vn 0 -1 0
vn 0 1 0
vn 0.951057 0 0.309017
vn 0.951057 0 0.309017
vn 0 -1 0
vn 0 1 0
vn 0.904827 0 0.425779
vn 0.904827 0 0.425779
vn 0 -1 0
vn 0 1 0
vn 0.844328 0 0.535827
vn 0.844328 0 0.535827
vn 0 -1 0
vn 0 1 0
vn 0.770513 0 0.637424
vn 0.770513 0 0.637424
vn 0 -1 0
vn 0 1 0
vn 0.684547 0 0.728969
vn 0.684547 0 0.728969
vn 0 -1 0
vn 0 1 0
vn 0.587785 0 0.809017
vn 0.587785 0 0.809017
vn 0 -1 0
vn 0 1 0
vn 0.481754 0 0.876307
vn 0.481754 0 0.876307
vn 0 -1 0
vn 0 1 0
vn 0.368125 0 0.929776
vn 0.368125 0 0.929776
vn 0 -1 0
vn 0 1 0
vn 0.24869 0 0.968583
vn 0.24869 0 0.968583
vn 0 -1 0
vn 0 1 0
vn 0.125333 0 0.992115
vn 0.125333 0 0.992115
vn 0 -1 0
vn 0 1 -0
vn 0 0 1
vn 0 0 1
vn 0 -1 0
vn 0 1 0
vn -0.125333 0 0.992115
vn -0.125333 0 0.992115
vn 0 -1 0
vn 0 1 0
vn -0.24869 0 0.968583
vn -0.24869 0 0.968583
vn 0 -1 0
vn 0 1 0
vn -0.368125 0 0.929776
vn -0.368125 0 0.929776
vn 0 -1 0
vn 0 1 0
vn -0.481754 0 0.876307
vn -0.481754 0 0.876307
vn 0 -1 0
vn 0 1 0
vn -0.587785 0 0.809017
vn -0.587785 0 0.809017
vn 0 -1 0
vn 0 1 0
vn -0.684547 0 0.728969
vn -0.684547 0 0.728969
vn 0 -1 0
vn 0 1 0
vn -0.770513 0 0.637424
vn -0.770513 0 0.637424
vn 0 -1 0
vn 0 1 0
vn -0.844328 0 0.535827
vn -0.844328 0 0.535827
vn 0 -1 0
vn 0 1 0
vn -0.904827 0 0.425779
vn -0.904827 0 0.425779
vn 0 -1 0
vn 0 1 0
vn -0.951057 0 0.309017
vn -0.951057 0 0.309017
vn 0 -1 0
vn 0 1 0
vn -0.982287 0 0.187381
vn -0.982287 0 0.187381
vn -0 -1 0
vn 0 1 0
vn -0.998027 0 0.0627905
vn -0.998027 0 0.0627905
vn 0 -1 0
vn 0 1 0
vn -0.998027 0 -0.0627905
vn -0.998027 -0 -0.0627905
vn 0 -1 0
vn 0 1 0
vn -0.982287 0 -0.187381
vn -0.982287 -0 -0.187381
vn 0 -1 0
vn 0 1 0
vn -0.951057 0 -0.309017
vn -0.951057 -0 -0.309017
vn 0 -1 0
vn 0 1 0
vn -0.904827 0 -0.425779
vn -0.904827 -0 -0.425779
vn 0 -1 0
vn 0 1 0
vn -0.844328 0 -0.535827
vn -0.844328 -0 -0.535827
vn 0 -1 0
vn 0 1 0
vn -0.770513 0 -0.637424
vn -0.770513 -0 -0.637424
vn 0 -1 0
vn 0 1 0
vn -0.684547 0 -0.728969
vn -0.684547 -0 -0.728969
vn 0 -1 0
vn 0 1 0
vn -0.587785 0 -0.809017
vn -0.587785 -0 -0.809017
vn 0 -1 0
vn 0 1 0
vn -0.481754 0 -0.876307
vn -0.481754 -0 -0.876307
vn 0 -1 0
vn 0 1 0
vn -0.368125 0 -0.929776
vn -0.368125 -0 -0.929776
vn 0 -1 0
vn 0 1 0
vn -0.24869 0 -0.968583
vn -0.24869 -0 -0.968583
vn 0 -1 0
vn 0 1 0
vn -0.125333 0 -0.992115
vn -0.125333 -0 -0.992115
vn 0 -1 -0
vn 0 1 0
vn 0 0 -1
vn 0 0 -1
vn 0 -1 0
vn 0 1 0
vn 0.125333 0 -0.992115
vn 0.125333 0 -0.992115
vn 0 -1 0
vn 0 1 0
vn 0.24869 0 -0.968583
vn 0.24869 0 -0.968583
vn 0 -1 0
vn 0 1 0
vn 0.368125 0 -0.929776
vn 0.368125 0 -0.929776
vn 0 -1 0
vn 0 1 0
vn 0.481754 0 -0.876307
vn 0.481754 0 -0.876307
vn 0 -1 0
vn 0 1 0
vn 0.587785 0 -0.809017
vn 0.587785 0 -0.809017
vn 0 -1 0
vn 0 1 0
vn 0.684547 0 -0.728969
vn 0.684547 0 -0.728969
vn 0 -1 0
vn 0 1 0
vn 0.770513 0 -0.637424
vn 0.770513 0 -0.637424
vn 0 -1 0
vn 0 1 0
vn 0.844328 0 -0.535827
vn 0.844328 0 -0.535827
vn 0 -1 0
vn 0 1 0
vn 0.904827 0 -0.425779
vn 0.904827 0 -0.425779
vn 0 -1 0
vn 0 1 0
vn 0.951057 0 -0.309017
vn 0.951057 0 -0.309017
vn 0 -1 0
vn 0 1 0
vn 0.982287 0 -0.187381
vn 0.982287 0 -0.187381
vn 0 -1 0
vn -0 1 0
vn 0.998027 0 -0.0627905
vn 0.998027 0 -0.0627905

f 1//1 2//1 3//1
f 1//2 3//2 4//2
f 5//3 6//3 7//3
f 5//4 7//4 8//4
f 1//5 2//5 6//5
f 1//6 6//6 5//6
f 2//7 3//7 7//7
f 2//8 7//8 6//8
f 3//9 4//9 8//9
f 3//10 8//10 7//10
f 1//11 4//11 8//11
f 1//12 8//12 5//12
f 9//13 10//13 11//13
f 12//14 13//14 14//14
f 10//15 11//15 13//15
f 10//16 13//16 14//16
f 9//17 11//17 15//17
f 12//18 16//18 13//18
f 11//19 15//19 16//19
f 11//20 16//20 13//20
f 9//21 15//21 17//21
f 12//22 18//22 16//22
f 15//23 17//23 18//23
f 15//24 18//24 16//24
f 9//25 17//25 19//25
f 12//26 20//26 18//26
f 17//27 19//27 20//27
f 17//28 20//28 18//28
f 9//29 19//29 21//29
f 12//30 22//30 20//30
f 19//31 21//31 22//31
f 19//32 22//32 20//32
f 9//33 21//33 23//33
f 12//34 24//34 22//34
f 21//35 23//35 24//35
f 21//36 24//36 22//36
f 9//37 23//37 25//37
f 12//38 26//38 24//38
f 23//39 25//39 26//39
f 23//40 26//40 24//40
f 9//41 25//41 27//41
f 12//42 28//42 26//42
f 25//43 27//43 28//43
f 25//44 28//44 26//44
f 9//45 27//45 29//45
f 12//46 30//46 28//46
f 27//47 29//47 30//47
f 27//48 30//48 28//48
f 9//49 29//49 31//49
f 12//50 32//50 30//50
f 29//51 31//51 32//51
f 29//52 32//52 30//52
f 9//53 31//53 33//53
f 12//54 34//54 32//54
f 31//55 33//55 34//55
f 31//56 34//56 32//56
f 9//57 33//57 35//57
f 12//58 36//58 34//58
f 33//59 35//59 36//59
f 33//60 36//60 34//60
f 9//61 35//61 37//61
f 12//62 38//62 36//62
f 35//63 37//63 38//63
f 35//64 38//64 36//64
f 9//65 37//65 39//65
f 12//66 40//66 38//66
f 37//67 39//67 40//67
f 37//68 40//68 38//68
f 9//69 39//69 41//69
f 12//70 42//70 40//70
f 39//71 41//71 42//71
f 39//72 42//72 40//72
f 9//73 41//73 43//73
f 12//74 44//74 42//74
f 41//75 43//75 44//75
f 41//76 44//76 42//76
f 9//77 43//77 45//77
f 12//78 46//78 44//78
f 43//79 45//79 46//79
f 43//80 46//80 44//80
f 9//81 45//81 47//81
f 12//82 48//82 46//82
f 45//83 47//83 48//83
f 45//84 48//84 46//84
f 9//85 47//85 49//85
f 12//86 50//86 48//86
f 47//87 49//87 50//87
f 47//88 50//88 48//88
f 9//89 49//89 51//89
f 12//90 52//90 50//90
f 49//91 51//91 52//91
f 49//92 52//92 50//92
f 9//93 51//93 53//93
f 12//94 54//94 52//94
f 51//95 53//95 54//95
f 51//96 54//96 52//96
f 9//97 53//97 55//97
f 12//98 56//98 54//98
f 53//99 55//99 56//99
f 53//100 56//100 54//100
f 9//101 55//101 57//101
f 12//102 58//102 56//102
f 55//103 57//103 58//103
f 55//104 58//104 56//104
f 9//105 57//105 59//105
f 12//106 60//106 58//106
f 57//107 59//107 60//107
f 57//108 60//108 58//108
f 9//109 59//109 61//109
f 12//110 62//110 60//110
f 59//111 61//111 62//111
f 59//112 62//112 60//112
f 9//113 61//113 63//113
f 12//114 64//114 62//114
f 61//115 63//115 64//115
f 61//116 64//116 62//116
f 9//117 63//117 65//117
f 12//118 66//118 64//118
f 63//119 65//119 66//119
f 63//120 66//120 64//120
f 9//121 65//121 67//121
f 12//122 68//122 66//122
f 65//123 67//123 68//123
f 65//124 68//124 66//124
f 9//125 67//125 69//125
f 12//126 70//126 68//126
f 67//127 69//127 70//127
f 67//128 70//128 68//128
f 9//129 69//129 71//129
f 12//130 72//130 70//130
f 69//131 71//131 72//131
f 69//132 72//132 70//132
f 9//133 71//133 73//133
f 12//134 74//134 72//134
f 71//135 73//135 74//135
f 71//136 74//136 72//136
f 9//137 73//137 75//137
f 12//138 76//138 74//138
f 73//139 75//139 76//139
f 73//140 76//140 74//140
f 9//141 75//141 77//141
f 12//142 78//142 76//142
f 75//143 77//143 78//143
f 75//144 78//144 76//144
f 9//145 77//145 79//145
f 12//146 80//146 78//146
f 77//147 79//147 80//147
f 77//148 80//148 78//148
f 9//149 79//149 81//149
f 12//150 82//150 80//150
f 79//151 81//151 82//151
f 79//152 82//152 80//152
f 9//153 81//153 83//153
f 12//154 84//154 82//154
f 81//155 83//155 84//155
f 81//156 84//156 82//156
f 9//157 83//157 85//157
f 12//158 86//158 84//158
f 83//159 85//159 86//159
f 83//160 86//160 84//160
f 9//161 85//161 87//161
f 12//162 88//162 86//162
f 85//163 87//163 88//163
f 85//164 88//164 86//164
f 9//165 87//165 89//165
f 12//166 90//166 88//166
f 87//167 89//167 90//167
f 87//168 90//168 88//168
f 9//169 89//169 91//169
f 12//170 92//170 90//170
f 89//171 91//171 92//171
f 89//172 92//172 90//172
f 9//173 91//173 93//173
f 12//174 94//174 92//174
f 91//175 93//175 94//175
f 91//176 94//176 92//176
f 9//177 93//177 95//177
f 12//178 96//178 94//178
f 93//179 95//179 96//179
f 93//180 96//180 94//180
f 9//181 95//181 97//181
f 12//182 98//182 96//182
f 95//183 97//183 98//183
f 95//184 98//184 96//184
f 9//185 97//185 99//185
f 12//186 100//186 98//186
f 97//187 99//187 100//187
f 97//188 100//188 98//188
f 9//189 99//189 101//189
f 12//190 102//190 100//190
f 99//191 101//191 102//191
f 99//192 102//192 100//192
f 9//193 101//193 103//193
f 12//194 104//194 102//194
f 101//195 103//195 104//195
f 101//196 104//196 102//196
f 9//197 103//197 105//197
f 12//198 106//198 104//198
f 103//199 105//199 106//199
f 103//200 106//200 104//200
f 9//201 105//201 107//201
f 12//202 108//202 106//202
f 105//203 107//203 108//203
f 105//204 108//204 106//204
f 9//205 107//205 109//205
f 12//206 110//206 108//206
f 107//207 109//207 110//207
f 107//208 110//208 108//208
f 9//209 109//209 10//209
f 12//210 14//210 110//210
f 109//211 10//211 14//211
f 109//212 14//212 110//212
